<?xml version="1.0" encoding="UTF-8" standalone="no"?>
<svg
   height="40"
   viewBox="0 -960 533.33336 533.33336"
   width="40"
   version="1.1"
   id="svg1"
   sodipodi:docname="cancel.svg"
   inkscape:version="1.3.2 (091e20e, 2023-11-25)"
   inkscape:export-filename="../../Cours/L2/shooter/src/main/resources/gui/laf/icon/cancel.png"
   inkscape:export-xdpi="96"
   inkscape:export-ydpi="96"
   xmlns:inkscape="http://www.inkscape.org/namespaces/inkscape"
   xmlns:sodipodi="http://sodipodi.sourceforge.net/DTD/sodipodi-0.dtd"
   xmlns="http://www.w3.org/2000/svg"
   xmlns:svg="http://www.w3.org/2000/svg">
  <defs
     id="defs1" />
  <sodipodi:namedview
     id="namedview1"
     pagecolor="#ffffff"
     bordercolor="#000000"
     borderopacity="0.25"
     inkscape:showpageshadow="2"
     inkscape:pageopacity="0.0"
     inkscape:pagecheckerboard="0"
     inkscape:deskcolor="#d1d1d1"
     inkscape:zoom="14.158223"
     inkscape:cx="12.572199"
     inkscape:cy="26.133222"
     inkscape:window-width="1920"
     inkscape:window-height="1003"
     inkscape:window-x="0"
     inkscape:window-y="40"
     inkscape:window-maximized="1"
     inkscape:current-layer="svg1" />
  <path
     d="m 194.66667,-593.33332 72.00001,-72 72.00001,72 28,-27.99999 -72.00001,-72.00001 72.00001,-72.00001 -28,-28 -72.00001,72 -72.00001,-72 -28,28 72,72.00001 -72,72.00001 z m 72.00001,100.00001 q -41.50001,0 -78.00001,-15.75 -36.49999,-15.75001 -63.5,-42.75001 -27.000002,-27 -42.750001,-63.49999 -15.749997,-36.50001 -15.749997,-78.00001 0,-41.5 15.749997,-78.00001 15.749999,-36.49999 42.750001,-63.49999 27.00001,-27 63.5,-42.75001 36.50001,-15.75 78.00001,-15.75 41.50001,0 78.00001,15.75 36.49999,15.75001 63.49999,42.75001 27,27 42.75001,63.49999 15.75,36.50001 15.75,78.00001 0,41.5 -15.75,78.00001 -15.75001,36.49999 -42.75001,63.49999 -27,27 -63.49999,42.75001 -36.5,15.75 -78.00001,15.75 z m 0,-40 q 67.00001,0 113.50001,-46.50001 46.5,-46.5 46.5,-113.5 0,-67.00001 -46.5,-113.50001 -46.5,-46.5 -113.50001,-46.5 -67.00001,0 -113.50001,46.5 -46.5,46.5 -46.5,113.50001 0,67 46.5,113.5 46.5,46.50001 113.50001,46.50001 z m 0,-160.00001 z"
     id="path1"
     style="fill:#cc0000;stroke-width:0.5" />
</svg>
