<?xml version="1.0" encoding="UTF-8" standalone="no"?>
<svg
   height="40"
   viewBox="0 -960 1600 1600"
   width="40"
   version="1.1"
   id="svg1"
   sodipodi:docname="floppyDisk.svg"
   inkscape:version="1.3.2 (091e20e, 2023-11-25)"
   inkscape:export-filename="../../Cours/L2/shooter/src/main/resources/gui/laf/icon/floppyDrive.png"
   inkscape:export-xdpi="96"
   inkscape:export-ydpi="96"
   xmlns:inkscape="http://www.inkscape.org/namespaces/inkscape"
   xmlns:sodipodi="http://sodipodi.sourceforge.net/DTD/sodipodi-0.dtd"
   xmlns="http://www.w3.org/2000/svg"
   xmlns:svg="http://www.w3.org/2000/svg">
  <defs
     id="defs1" />
  <sodipodi:namedview
     id="namedview1"
     pagecolor="#ffffff"
     bordercolor="#000000"
     borderopacity="0.25"
     inkscape:showpageshadow="2"
     inkscape:pageopacity="0.0"
     inkscape:pagecheckerboard="true"
     inkscape:deskcolor="#d1d1d1"
     inkscape:zoom="10.30414"
     inkscape:cx="15.43069"
     inkscape:cy="5.822902"
     inkscape:window-width="1920"
     inkscape:window-height="1003"
     inkscape:window-x="0"
     inkscape:window-y="40"
     inkscape:window-maximized="1"
     inkscape:current-layer="svg1" />
  <path
     d="m 1400,-493.33333 v 800 q 0,55 -39.1667,94.16666 Q 1321.6667,440 1266.6667,440 H 333.33333 q -55,0 -94.16666,-39.16667 Q 200,361.66667 200,306.66667 v -933.33334 q 0,-55.00003 39.16667,-94.16663 Q 278.33333,-760 333.33333,-760 h 799.99997 z m -133.3333,56.66666 -190,-190 H 333.33333 V 306.66667 H 1266.6667 Z M 800,240 q 83.33333,0 141.66667,-58.33333 Q 1000,123.33333 1000,40 1000,-43.33333 941.66667,-101.66667 883.33333,-160 800,-160 716.66667,-160 658.33333,-101.66667 600,-43.33333 600,40 600,123.33333 658.33333,181.66667 716.66667,240 800,240 Z M 400,-293.33333 h 600 V -560 H 400 Z m -66.66667,-143.33334 v 743.33334 -933.33334 z"
     id="path1"
     style="stroke-width:1.66667;fill:#ffffff" />
</svg>
