<?xml version="1.0" encoding="UTF-8" standalone="no"?>
<svg
   height="40"
   viewBox="0 -960 1600 1600"
   width="40"
   version="1.1"
   id="svg1"
   sodipodi:docname="drive.svg"
   inkscape:version="1.3.2 (091e20e, 2023-11-25)"
   inkscape:export-filename="../../Cours/L2/shooter/src/main/resources/gui/laf/icon/hardDrive.png"
   inkscape:export-xdpi="96"
   inkscape:export-ydpi="96"
   xmlns:inkscape="http://www.inkscape.org/namespaces/inkscape"
   xmlns:sodipodi="http://sodipodi.sourceforge.net/DTD/sodipodi-0.dtd"
   xmlns="http://www.w3.org/2000/svg"
   xmlns:svg="http://www.w3.org/2000/svg">
  <defs
     id="defs1" />
  <sodipodi:namedview
     id="namedview1"
     pagecolor="#ffffff"
     bordercolor="#000000"
     borderopacity="0.25"
     inkscape:showpageshadow="2"
     inkscape:pageopacity="0.0"
     inkscape:pagecheckerboard="true"
     inkscape:deskcolor="#d1d1d1"
     inkscape:zoom="11.157"
     inkscape:cx="-3.2266739"
     inkscape:cy="15.77485"
     inkscape:window-width="1920"
     inkscape:window-height="1003"
     inkscape:window-x="0"
     inkscape:window-y="40"
     inkscape:window-maximized="1"
     inkscape:current-layer="svg1" />
  <path
     d="m 320,140 h 960 V -220 H 320 Z m 780,-90 q 37.5,0 63.75,-26.25 Q 1190,-2.5 1190,-40 q 0,-37.5 -26.25,-63.75 Q 1137.5,-130 1100,-130 q -37.5,0 -63.75,26.25 Q 1010,-77.5 1010,-40 q 0,37.5 26.25,63.75 Q 1062.5,50 1100,50 Z m 300,-390 h -169.5 l -120,-120 h -621 l -120,120 H 200 l 205.5,-205.5 q 16.5,-16.5 38.25,-25.5 21.75,-9 45.75,-9 h 621 q 24,0 45.75,9 21.75,9 38.25,25.5 z M 320,260 Q 270.5,260 235.25,224.75 200,189.5 200,140 v -480 h 1200 v 480 q 0,49.5 -35.25,84.75 Q 1329.5,260 1280,260 Z"
     id="path1"
     style="fill:#ffffff;stroke-width:1.5" />
</svg>
