<?xml version="1.0" encoding="UTF-8" standalone="no"?>
<svg
   height="40px"
   viewBox="0 -960 960 960"
   width="40px"
   fill="#003399"
   version="1.1"
   id="svg1"
   sodipodi:docname="info.svg"
   inkscape:version="1.3.2 (091e20e, 2023-11-25)"
   inkscape:export-filename="../Cours/L2/shooter/src/main/resources/gui/laf/icon/info.png"
   inkscape:export-xdpi="96"
   inkscape:export-ydpi="96"
   xmlns:inkscape="http://www.inkscape.org/namespaces/inkscape"
   xmlns:sodipodi="http://sodipodi.sourceforge.net/DTD/sodipodi-0.dtd"
   xmlns="http://www.w3.org/2000/svg"
   xmlns:svg="http://www.w3.org/2000/svg">
  <defs
     id="defs1" />
  <sodipodi:namedview
     id="namedview1"
     pagecolor="#ffffff"
     bordercolor="#000000"
     borderopacity="0.25"
     inkscape:showpageshadow="2"
     inkscape:pageopacity="0.0"
     inkscape:pagecheckerboard="0"
     inkscape:deskcolor="#d1d1d1"
     showgrid="false"
     inkscape:zoom="19.65"
     inkscape:cx="20"
     inkscape:cy="20"
     inkscape:window-width="1920"
     inkscape:window-height="1003"
     inkscape:window-x="0"
     inkscape:window-y="40"
     inkscape:window-maximized="1"
     inkscape:current-layer="svg1" />
  <path
     d="m 451.803,-300 h 59.994 v -216 h -59.994 z m 28.188,-284.4 q 13.509,0 22.662,-8.973 9.144,-8.964 9.144,-22.23 0,-13.77 -9.135,-23.085 -9.144,-9.315 -22.653,-9.315 -13.509,0 -22.662,9.315 -9.144,9.315 -9.144,23.085 0,13.266 9.135,22.23 9.144,8.973 22.653,8.973 z m 0.171,464.4 q -74.547,0 -140.103,-28.35 Q 274.503,-176.7 225.597,-225.597 176.7,-274.503 148.35,-340.104 120,-405.705 120,-480.297 q 0,-74.592 28.35,-140.202 28.35,-65.601 77.247,-114.201 48.906,-48.6 114.507,-76.95 65.601,-28.35 140.193,-28.35 74.592,0 140.202,28.35 65.601,28.35 114.201,76.95 48.6,48.6 76.95,114.3 28.35,65.7 28.35,140.238 0,74.547 -28.35,140.103 -28.35,65.556 -76.95,114.345 -48.6,48.789 -114.3,77.256 Q 554.7,-120 480.162,-120 Z m 0.135,-60.003 q 125.1,0 212.4,-87.597 87.3,-87.597 87.3,-212.697 0,-125.1 -87.183,-212.4 -87.192,-87.3 -212.814,-87.3 -124.803,0 -212.4,87.183 -87.597,87.192 -87.597,212.814 0,124.803 87.597,212.4 87.597,87.597 212.697,87.597 z M 480,-480 Z"
     id="path1"
     style="stroke-width:0.9" />
</svg>
