<?xml version="1.0" encoding="UTF-8" standalone="no"?>
<svg
   height="40"
   viewBox="0 -960 1600 1600"
   width="40"
   version="1.1"
   id="svg1"
   sodipodi:docname="ok.svg"
   inkscape:version="1.3.2 (091e20e, 2023-11-25)"
   inkscape:export-filename="../../Cours/L2/shooter/src/main/resources/gui/laf/icon/ok.png"
   inkscape:export-xdpi="96"
   inkscape:export-ydpi="96"
   xmlns:inkscape="http://www.inkscape.org/namespaces/inkscape"
   xmlns:sodipodi="http://sodipodi.sourceforge.net/DTD/sodipodi-0.dtd"
   xmlns="http://www.w3.org/2000/svg"
   xmlns:svg="http://www.w3.org/2000/svg">
  <defs
     id="defs1" />
  <sodipodi:namedview
     id="namedview1"
     pagecolor="#ffffff"
     bordercolor="#000000"
     borderopacity="0.25"
     inkscape:showpageshadow="2"
     inkscape:pageopacity="0.0"
     inkscape:pagecheckerboard="0"
     inkscape:deskcolor="#d1d1d1"
     inkscape:zoom="7.9429961"
     inkscape:cx="23.165062"
     inkscape:cy="23.920445"
     inkscape:window-width="1920"
     inkscape:window-height="1003"
     inkscape:window-x="0"
     inkscape:window-y="40"
     inkscape:window-maximized="1"
     inkscape:current-layer="svg1" />
  <path
     d="m 716,116 423,-423 -84,-84 -339,339 -171,-171 -84,84 z m 84,324 Q 675.5,440 566,392.75 456.5,345.5 375.5,264.5 294.5,183.5 247.25,74 200,-35.5 200,-160 q 0,-124.5 47.25,-234 47.25,-109.5 128.25,-190.5 81,-81 190.5,-128.25 109.5,-47.25 234,-47.25 124.5,0 234,47.25 109.5,47.25 190.5,128.25 81,81 128.25,190.5 47.25,109.5 47.25,234 0,124.5 -47.25,234 -47.25,109.5 -128.25,190.5 -81,81 -190.5,128.25 Q 924.5,440 800,440 Z m 0,-120 q 201,0 340.5,-139.5 Q 1280,41 1280,-160 1280,-361 1140.5,-500.5 1001,-640 800,-640 599,-640 459.5,-500.5 320,-361 320,-160 320,41 459.5,180.5 599,320 800,320 Z m 0,-480 z"
     id="path1"
     style="fill:#669900;stroke-width:1.5" />
</svg>
