<?xml version="1.0" encoding="UTF-8" standalone="no"?>
<svg
   height="40"
   viewBox="0 -960 1600 1600"
   width="40"
   version="1.1"
   id="svg1"
   sodipodi:docname="parentFolder.svg"
   inkscape:version="1.3.2 (091e20e, 2023-11-25)"
   xmlns:inkscape="http://www.inkscape.org/namespaces/inkscape"
   xmlns:sodipodi="http://sodipodi.sourceforge.net/DTD/sodipodi-0.dtd"
   xmlns="http://www.w3.org/2000/svg"
   xmlns:svg="http://www.w3.org/2000/svg">
  <defs
     id="defs1" />
  <sodipodi:namedview
     id="namedview1"
     pagecolor="#ffffff"
     bordercolor="#000000"
     borderopacity="0.25"
     inkscape:showpageshadow="2"
     inkscape:pageopacity="0.0"
     inkscape:pagecheckerboard="true"
     inkscape:deskcolor="#d1d1d1"
     inkscape:zoom="18.091311"
     inkscape:cx="20.507082"
     inkscape:cy="18.517177"
     inkscape:window-width="1920"
     inkscape:window-height="1003"
     inkscape:window-x="0"
     inkscape:window-y="40"
     inkscape:window-maximized="1"
     inkscape:current-layer="svg1" />
  <path
     d="m 740,140 h 120 v -252 l 96,96 84,-84 -240,-240 -240,240 84,84 96,-96 z M 320,320 Q 270.5,320 235.25,284.75 200,249.5 200,200 v -720 q 0,-49.5 35.25,-84.75 Q 270.5,-640 320,-640 h 360 l 120,120 h 480 q 49.5,0 84.75,35.25 35.25,35.25 35.25,84.75 v 600 q 0,49.5 -35.25,84.75 Q 1329.5,320 1280,320 Z m 0,-120 h 960 V -400 H 750.5 l -120,-120 H 320 Z m 0,0 v -720 z"
     id="path1"
     style="stroke-width:1.5;fill:#ffffff" />
</svg>
